<svg width="28" height="28" viewBox="0 0 28 28" fill="none" xmlns="http://www.w3.org/2000/svg">
<path d="M21.875 9.33301V11.783C21.3617 11.713 20.7783 11.678 20.125 11.6663V9.33301C20.125 5.65801 19.0867 3.20801 14 3.20801C8.91333 3.20801 7.875 5.65801 7.875 9.33301V11.6663C7.22167 11.678 6.63833 11.713 6.125 11.783V9.33301C6.125 5.94967 6.94167 1.45801 14 1.45801C21.0583 1.45801 21.875 5.94967 21.875 9.33301Z" fill="#3763FD"/>
<path d="M21.8749 11.7837C21.3616 11.7137 20.7783 11.6787 20.1249 11.667H7.87492C7.22159 11.6787 6.63825 11.7137 6.12492 11.7837C3.14992 12.1453 2.33325 13.6037 2.33325 17.5003V19.8337C2.33325 24.5003 3.49992 25.667 8.16658 25.667H19.8333C24.4999 25.667 25.6666 24.5003 25.6666 19.8337V17.5003C25.6666 13.6037 24.8499 12.1453 21.8749 11.7837ZM10.1616 19.4953C9.93992 19.7053 9.63659 19.8337 9.33325 19.8337C9.18158 19.8337 9.02992 19.7987 8.88992 19.7403C8.73825 19.682 8.62158 19.6003 8.50492 19.4953C8.29492 19.2737 8.16658 18.9703 8.16658 18.667C8.16658 18.5153 8.20158 18.3637 8.25992 18.2237C8.31825 18.0837 8.39992 17.9553 8.50492 17.8387C8.62158 17.7337 8.73825 17.652 8.88992 17.5937C9.32158 17.407 9.83492 17.512 10.1616 17.8387C10.2666 17.9553 10.3483 18.0837 10.4066 18.2237C10.4649 18.3637 10.4999 18.5153 10.4999 18.667C10.4999 18.9703 10.3716 19.2737 10.1616 19.4953ZM15.0733 19.1103C15.0149 19.2503 14.9333 19.3787 14.8283 19.4953C14.6066 19.7053 14.3033 19.8337 13.9999 19.8337C13.6849 19.8337 13.3933 19.7053 13.1716 19.4953C13.0666 19.3787 12.9849 19.2503 12.9266 19.1103C12.8683 18.9703 12.8333 18.8187 12.8333 18.667C12.8333 18.352 12.9616 18.0603 13.1716 17.8387C13.6033 17.407 14.3849 17.407 14.8283 17.8387C15.0383 18.0603 15.1666 18.352 15.1666 18.667C15.1666 18.8187 15.1316 18.9703 15.0733 19.1103ZM19.4949 19.4953C19.2733 19.7053 18.9699 19.8337 18.6666 19.8337C18.3633 19.8337 18.0599 19.7053 17.8383 19.4953C17.6283 19.2737 17.4999 18.982 17.4999 18.667C17.4999 18.352 17.6283 18.0603 17.8383 17.8387C18.2816 17.407 19.0632 17.407 19.4949 17.8387C19.5416 17.897 19.5883 17.9553 19.6349 18.0253C19.6816 18.0837 19.7166 18.1537 19.7399 18.2237C19.7749 18.2937 19.7983 18.3637 19.8099 18.4337C19.8216 18.5153 19.8333 18.597 19.8333 18.667C19.8333 18.9703 19.7049 19.2737 19.4949 19.4953Z" fill="#3763FD"/>
</svg>
