<svg width="28" height="28" viewBox="0 0 28 28" fill="none" xmlns="http://www.w3.org/2000/svg">
<path d="M17.9551 6.07849L19.6001 9.36849C19.8218 9.82349 20.4168 10.2552 20.9184 10.3485L23.8934 10.8385C25.7951 11.1535 26.2384 12.5302 24.8734 13.9068L22.5518 16.2285C22.1668 16.6135 21.9451 17.3718 22.0734 17.9202L22.7384 20.7902C23.2634 23.0535 22.0501 23.9402 20.0551 22.7502L17.2668 21.0935C16.7651 20.7902 15.9251 20.7902 15.4234 21.0935L12.6351 22.7502C10.6401 23.9285 9.42676 23.0535 9.95176 20.7902L10.6168 17.9202C10.7218 17.3602 10.5001 16.6018 10.1151 16.2168L7.79343 13.8952C6.42843 12.5302 6.87176 11.1535 8.77343 10.8268L11.7484 10.3368C12.2501 10.2552 12.8451 9.81183 13.0668 9.35683L14.7118 6.06683C15.6101 4.29349 17.0568 4.29349 17.9551 6.07849Z" fill="#3763FD"/>
<path d="M9.33325 6.70801H2.33325C1.85492 6.70801 1.45825 6.31134 1.45825 5.83301C1.45825 5.35467 1.85492 4.95801 2.33325 4.95801H9.33325C9.81159 4.95801 10.2083 5.35467 10.2083 5.83301C10.2083 6.31134 9.81159 6.70801 9.33325 6.70801Z" fill="#3763FD"/>
<path d="M5.83325 23.042H2.33325C1.85492 23.042 1.45825 22.6453 1.45825 22.167C1.45825 21.6887 1.85492 21.292 2.33325 21.292H5.83325C6.31158 21.292 6.70825 21.6887 6.70825 22.167C6.70825 22.6453 6.31158 23.042 5.83325 23.042Z" fill="#3763FD"/>
<path d="M3.49992 14.875H2.33325C1.85492 14.875 1.45825 14.4783 1.45825 14C1.45825 13.5217 1.85492 13.125 2.33325 13.125H3.49992C3.97825 13.125 4.37492 13.5217 4.37492 14C4.37492 14.4783 3.97825 14.875 3.49992 14.875Z" fill="#3763FD"/>
</svg>
