<svg width="28" height="28" viewBox="0 0 28 28" fill="none" xmlns="http://www.w3.org/2000/svg">
<path d="M10.4183 2.33301H5.85659C3.49992 2.33301 2.33325 3.49967 2.33325 5.85634V10.4297C2.33325 12.833 3.49992 13.9997 5.85659 13.9413H10.4299C12.8333 13.9997 13.9999 12.833 13.9416 10.418V5.85634C13.9999 3.49967 12.8333 2.33301 10.4183 2.33301ZM10.5116 11.3863C9.71825 11.3863 8.94825 11.083 8.30659 10.5463C7.58325 11.0713 6.70825 11.3863 5.76325 11.3863C5.28492 11.3863 4.88825 10.9897 4.88825 10.5113C4.88825 10.033 5.28492 9.63634 5.76325 9.63634C6.95325 9.63634 7.94492 8.81967 8.30659 7.69967H5.76325C5.28492 7.69967 4.88825 7.30301 4.88825 6.82467C4.88825 6.34634 5.28492 5.94967 5.76325 5.94967H7.26825C7.31492 5.50634 7.67659 5.15634 8.13159 5.15634C8.58659 5.15634 8.94825 5.50634 8.99492 5.94967H9.29825C9.30992 5.94967 9.32159 5.94967 9.32159 5.94967H9.34492H10.4999C10.9783 5.94967 11.3749 6.34634 11.3749 6.82467C11.3749 7.30301 10.9899 7.69967 10.4999 7.69967H10.1149C10.0099 8.25967 9.78825 8.78468 9.49659 9.26301C9.81159 9.49634 10.1499 9.63634 10.5116 9.63634C10.9899 9.63634 11.3866 10.033 11.3866 10.5113C11.3866 10.9897 10.9899 11.3863 10.5116 11.3863Z" fill="#3763FD"/>
<path d="M10.4999 26.5417C5.51825 26.5417 1.45825 22.4817 1.45825 17.5C1.45825 17.0217 1.85492 16.625 2.33325 16.625C2.81159 16.625 3.20825 17.0217 3.20825 17.5C3.20825 20.9533 5.61159 23.8467 8.84325 24.605L8.52825 24.08C8.28325 23.66 8.41159 23.1233 8.83159 22.8783C9.23992 22.6333 9.78825 22.7617 10.0333 23.1817L11.2583 25.2233C11.4216 25.4917 11.4216 25.83 11.2699 26.0983C11.1066 26.3667 10.8149 26.5417 10.4999 26.5417Z" fill="#3763FD"/>
<path d="M25.6667 11.3747C25.1883 11.3747 24.7917 10.978 24.7917 10.4997C24.7917 7.04634 22.3883 4.15301 19.1567 3.39467L19.4717 3.91967C19.7167 4.33967 19.5883 4.87634 19.1683 5.12134C18.76 5.36634 18.2117 5.23801 17.9667 4.81801L16.7417 2.77634C16.5783 2.50801 16.5783 2.16967 16.73 1.90134C16.8933 1.63301 17.185 1.45801 17.5 1.45801C22.4817 1.45801 26.5417 5.51801 26.5417 10.4997C26.5417 10.978 26.145 11.3747 25.6667 11.3747Z" fill="#3763FD"/>
<path d="M19.7399 13.8252C16.4732 13.8252 13.8132 16.4735 13.8132 19.7519C13.8132 23.0185 16.4616 25.6785 19.7399 25.6785C23.0066 25.6785 25.6666 23.0302 25.6666 19.7519C25.6666 16.4735 23.0182 13.8252 19.7399 13.8252ZM22.6332 22.5635C22.2016 22.7735 21.6766 22.6102 21.4549 22.1669L21.2566 21.7702H18.2349L18.0366 22.1669C17.8849 22.4702 17.5699 22.6452 17.2549 22.6452C17.1266 22.6452 16.9866 22.6102 16.8699 22.5519C16.4382 22.3302 16.2632 21.8052 16.4732 21.3735L18.9699 16.3919C19.1216 16.1002 19.4249 15.9135 19.7516 15.9135C20.0782 15.9135 20.3816 16.1002 20.5332 16.4035L23.0299 21.3852C23.2399 21.8169 23.0649 22.3419 22.6332 22.5635Z" fill="#3763FD"/>
<path d="M19.1101 20.0197H20.3818L19.7401 18.748L19.1101 20.0197Z" fill="#3763FD"/>
</svg>
