<svg width="16" height="16" viewBox="0 0 16 16" fill="none" xmlns="http://www.w3.org/2000/svg">
<g clip-path="url(#clip0_123_1764)">
<path d="M10.6668 8.59967V11.3997C10.6668 13.733 9.7335 14.6663 7.40016 14.6663H4.60016C2.26683 14.6663 1.3335 13.733 1.3335 11.3997V8.59967C1.3335 6.26634 2.26683 5.33301 4.60016 5.33301H7.40016C9.7335 5.33301 10.6668 6.26634 10.6668 8.59967Z" fill="white"/>
<path d="M11.3998 1.33301H8.59984C6.67914 1.33301 5.71152 1.96994 5.42907 3.49228C5.32748 4.03984 5.79484 4.49967 6.35175 4.49967H7.39984C10.1998 4.49967 11.4998 5.79967 11.4998 8.59967V9.64777C11.4998 10.2047 11.9597 10.672 12.5072 10.5704C14.0296 10.288 14.6665 9.32037 14.6665 7.39967V4.59967C14.6665 2.26634 13.7332 1.33301 11.3998 1.33301Z" fill="white"/>
</g>
<defs>
<clipPath id="clip0_123_1764">
<rect width="16" height="16" fill="white"/>
</clipPath>
</defs>
</svg>
