<svg width="24" height="25" viewBox="0 0 24 25" fill="none" xmlns="http://www.w3.org/2000/svg">
<g clip-path="url(#clip0_123_1161)">
<path d="M16 13.0714V17.2714C16 20.7714 14.6 22.1714 11.1 22.1714H6.9C3.4 22.1714 2 20.7714 2 17.2714V13.0714C2 9.57139 3.4 8.17139 6.9 8.17139H11.1C14.6 8.17139 16 9.57139 16 13.0714Z" fill="#008F06"/>
<path d="M17.0998 2.17139H12.8998C9.81668 2.17139 8.37074 3.26547 8.06951 5.9104C8.00649 6.46373 8.46476 6.92139 9.02167 6.92139H11.0998C15.2998 6.92139 17.2498 8.87139 17.2498 13.0714V15.1495C17.2498 15.7064 17.7074 16.1647 18.2608 16.1016C20.9057 15.8004 21.9998 14.3545 21.9998 11.2714V7.07139C21.9998 3.57139 20.5998 2.17139 17.0998 2.17139Z" fill="#008F06"/>
</g>
<defs>
<clipPath id="clip0_123_1161">
<rect width="24" height="24.2571" fill="white" transform="translate(0 0.171387)"/>
</clipPath>
</defs>
</svg>
