<svg width="28" height="28" viewBox="0 0 28 28" fill="none" xmlns="http://www.w3.org/2000/svg">
<path d="M18.4334 2.57792C17.955 2.09958 17.1267 2.42625 17.1267 3.09125V7.16292C17.1267 8.86625 18.5734 10.2779 20.335 10.2779C21.4434 10.2896 22.9834 10.2896 24.3017 10.2896C24.9667 10.2896 25.3167 9.50792 24.85 9.04125C23.17 7.34959 20.16 4.30459 18.4334 2.57792Z" fill="#3763FD"/>
<path d="M23.9167 11.888H20.5451C17.7801 11.888 15.5284 9.63634 15.5284 6.87134V3.49967C15.5284 2.85801 15.0034 2.33301 14.3617 2.33301H9.41508C5.82175 2.33301 2.91675 4.66634 2.91675 8.83134V19.168C2.91675 23.333 5.82175 25.6663 9.41508 25.6663H18.5851C22.1784 25.6663 25.0834 23.333 25.0834 19.168V13.0547C25.0834 12.413 24.5584 11.888 23.9167 11.888ZM13.4167 20.708H8.75008C8.27175 20.708 7.87508 20.3113 7.87508 19.833C7.87508 19.3547 8.27175 18.958 8.75008 18.958H13.4167C13.8951 18.958 14.2917 19.3547 14.2917 19.833C14.2917 20.3113 13.8951 20.708 13.4167 20.708ZM15.7501 16.0413H8.75008C8.27175 16.0413 7.87508 15.6447 7.87508 15.1663C7.87508 14.688 8.27175 14.2913 8.75008 14.2913H15.7501C16.2284 14.2913 16.6251 14.688 16.6251 15.1663C16.6251 15.6447 16.2284 16.0413 15.7501 16.0413Z" fill="#3763FD"/>
</svg>
