<svg width="22" height="22" viewBox="0 0 22 22" fill="none" xmlns="http://www.w3.org/2000/svg">
<path d="M17.4724 8.38067C17.1179 8.38067 16.8361 8.66249 16.8361 9.01704V10.4534C16.8361 13.6716 14.2179 16.2898 10.9997 16.2898C7.78153 16.2898 5.16335 13.6716 5.16335 10.4534V9.00795C5.16335 8.6534 4.88153 8.37158 4.52699 8.37158C4.17244 8.37158 3.89062 8.6534 3.89062 9.00795V10.4443C3.89062 14.1443 6.73608 17.1898 10.3634 17.517V19.4534C10.3634 19.8079 10.6452 20.0898 10.9997 20.0898C11.3543 20.0898 11.6361 19.8079 11.6361 19.4534V17.517C15.2543 17.1989 18.1088 14.1443 18.1088 10.4443V9.00795C18.0997 8.66249 17.8179 8.38067 17.4724 8.38067Z" fill="white"/>
<path d="M11.0001 1.9082C8.78193 1.9082 6.98193 3.7082 6.98193 5.92638V10.5809C6.98193 12.7991 8.78193 14.5991 11.0001 14.5991C13.2183 14.5991 15.0183 12.7991 15.0183 10.5809V5.92638C15.0183 3.7082 13.2183 1.9082 11.0001 1.9082Z" fill="white"/>
</svg>
