<svg width="32" height="32" viewBox="0 0 32 32" fill="none" xmlns="http://www.w3.org/2000/svg">
<path d="M16 0C7.16 0 0 7.16 0 16C0 19 0.84 21.84 2.32 24.24C5.08 28.88 10.16 32 16 32C21.84 32 26.92 28.88 29.68 24.24C31.16 21.84 32 19 32 16C32 7.16 24.84 0 16 0ZM23.88 14.68L15.36 22.56C14.8 23.08 14.04 23.36 13.32 23.36C12.56 23.36 11.8 23.08 11.2 22.48L7.24 18.52C6.08 17.36 6.08 15.44 7.24 14.28C8.4 13.12 10.32 13.12 11.48 14.28L13.4 16.2L19.8 10.28C21 9.16 22.92 9.24 24.04 10.44C25.16 11.64 25.08 13.56 23.88 14.68Z" fill="#3763FD"/>
</svg>
